<svg xmlns="http://www.w3.org/2000/svg" viewBox="0 0 512 512" role="img" aria-label="Centra isotipo">
<g fill="currentColor">
	<path d="M195.5,155.4c19.2-15.8,43.4-26.3,69.3-28.8V15.3C210.7,18.1,159,39.9,118.7,75.8L195.5,155.4z"/>
	<path d="M287.7,126.3c38.7,2,70.7,23.9,96,51.7c30.8,25.9,84.3,7.9,90.3-32.8C485.5,75.8,346.9,12.2,287.7,15.2V126.3z"/>
	<path d="M474.4,366.5c-6.5-43.6-66.2-60.1-95.6-28.2c-110,131.9-309.9-35.4-199.6-166.8l-76.8-79.7
		C-41.9,242,70.2,499.1,278.1,496.8C343.3,500.7,481.3,443.4,474.4,366.5z"/>
</g>
</svg>
